<?xml version="1.0" encoding="utf-8"?>
<!-- Generator: Adobe Illustrator 19.0.0, SVG Export Plug-In . SVG Version: 6.00 Build 0)  -->
<svg version="1.1" id="Capa_1" xmlns="http://www.w3.org/2000/svg" xmlns:xlink="http://www.w3.org/1999/xlink" x="0px" y="0px"
	 viewBox="-6 123.7 498.9 266.3" style="enable-background:new -6 123.7 498.9 266.3;" xml:space="preserve">
<path d="M69.7,223.1c0,7-1.8,13.6-5,19.3c23.8,3.3,90.5-12.3,155.1,43c26.2,25.4,41.1,58.6,79.5,58.6h122.1
	c44.8,0,55.5-42.5,40.2-87.9c-14-41.4-53.3-68.9-97-68.9h-23c0.7-1.5,1-3.3,0.7-5.2c-0.7-4.1-4.5-7.1-8.7-7.1H328v-35.8
	c0-4.2-3.4-7.5-7.6-7.4c-4,0.1-7.1,3.7-7.1,7.7v35.5h-4.7c-4.2,0-8,2.9-8.7,7.1c-0.4,1.9,0,3.7,0.7,5.2h-1.3
	c-17.2,0-33.3,0.9-46.5,6.9c-20.3,9.3-42.5,13.5-64.7,12.8l-124-4C67.7,208.8,69.8,215.8,69.7,223.1z M321,251
	c0-23.4,19.4-42.6,43.1-42.6h14c23.7,0,49.4,18.4,58.9,40.1c10.7,24.4-1.6,45.2-25.3,45.2h-47.6C340.4,293.7,321,274.5,321,251z"/>
<path d="M236.8,383.4c38,0,106.2,0,144.2,0c20.7,0,41.3,0,61.9,0c11.9,0,24.6,0.3,35-6.2c12.8-8,12-22.3,12-35.5
	c0-16.2-23.9-16.5-23.9-0.3c0,3,0.3,11.6-1.1,13.9c-1.3,2.2-6.7,2.6-9.8,2.7c-7.3,0.4-14.6,0.2-21.9,0.2c-21,0-41.9,0-62.9,0
	c-34.3,0-99,0-133.3,0C220.7,358.2,220.7,383.4,236.8,383.4z"/>
<g>
	<path d="M30.8,190.7v10c7.5,0,14.5,3.7,18.7,10c3.3,5,4.5,11,3.3,16.9s-4.6,11-9.6,14.3c-3.7,2.5-8,3.8-12.4,3.8
		c-7.5,0-14.5-3.7-18.7-10c-3.3-5-4.5-11-3.3-16.9s4.6-11,9.6-14.3c3.7-2.5,8-3.8,12.4-3.8V190.7 M30.8,190.7
		c-6.2,0-12.5,1.8-18,5.5c-14.9,10-19,30.2-9,45.1c6.3,9.4,16.6,14.5,27.1,14.5c6.2,0,12.5-1.8,18-5.5c14.9-10,19-30.2,9-45.1
		C51.6,195.8,41.3,190.7,30.8,190.7L30.8,190.7z"/>
</g>
<path d="M338.1,365.1h-21.4v-29.9h21.4V365.1z"/>
<path d="M399.7,367.3h-21.4v-29.9h21.4V367.3z"/>
<g>
	<path d="M389.5,256.2c0,0.2-0.1,0.6-0.1,1.1c0,1.4,0.6,2.2,1.7,2.2c1,0,2.1-0.5,3.1-1.5s1.8-2.4,2.5-4.2c0.6-1.8,1-3.9,1-6.1
		c0-3-0.7-5.7-2-8.1c-1.4-2.4-3.4-4.3-6.2-5.8c-2.8-1.4-6.2-2.2-10.3-2.2c-6.8,0-12.2,1.4-16.1,4.2c-4,2.8-6.7,6.1-8.3,9.8
		c-1.6,3.7-2.3,7.1-2.3,10.1c0,4.3,0.9,7.8,2.6,10.5c1.8,2.8,4.1,4.8,7.1,6.1c3,1.3,6.3,2,10,2c2.3,0,4.6-0.4,6.9-1.1
		c2.3-0.7,4.5-1.7,6.6-3l3.5,4.9c-2.4,1.9-5.2,3.4-8.6,4.4s-6.6,1.5-9.7,1.5c-4.7,0-9.1-0.9-13-2.8c-4-1.8-7.2-4.6-9.5-8.4
		c-2.4-3.8-3.6-8.4-3.6-13.9c0-5,1.3-9.9,3.8-14.6c2.5-4.8,6.5-8.7,11.8-11.8c5.4-3.1,12.1-4.7,20.2-4.7c5.3,0,9.9,1,13.7,3
		c3.8,2,6.7,4.7,8.6,8.2c2,3.5,2.9,7.3,2.9,11.6c0,3.6-0.7,6.9-2.1,9.9c-1.4,3-3.4,5.4-5.9,7.2s-5.4,2.7-8.7,2.7
		c-1.8,0-3.4-0.4-4.8-1.3c-1.4-0.9-2.4-2.1-3.1-3.6c-1.3,1.4-3,2.6-5,3.7c-2,1-4,1.5-6,1.5c-2.3,0-4.4-0.5-6.2-1.5s-3.3-2.4-4.3-4.3
		c-1.1-1.9-1.6-4.2-1.6-6.8c0-3.1,0.7-6,2-8.5c1.3-2.5,3.2-4.5,5.5-6c2.4-1.4,5.1-2.2,8.2-2.2c2.4,0,4.3,0.4,5.5,1.1
		c1.2,0.7,2.3,1.8,3.3,3.2l1-2.9h8.3L389.5,256.2z M377.5,259.6c1.1-0.7,2.1-1.7,3-3.1l0.9-6.6c-0.3-1.3-1-2.4-2.1-3.2
		c-1.1-0.8-2.5-1.2-4.1-1.2c-1.5,0-2.8,0.4-4.1,1.2c-1.2,0.8-2.2,1.8-2.9,3.1c-0.7,1.3-1.1,2.6-1.1,4.1c0,1.9,0.6,3.5,1.8,4.8
		c1.2,1.3,2.7,1.9,4.6,1.9C375.1,260.6,376.4,260.3,377.5,259.6z"/>
</g>
</svg>
