<?xml version="1.0" encoding="utf-8"?>
<!-- Generator: Adobe Illustrator 19.0.0, SVG Export Plug-In . SVG Version: 6.00 Build 0)  -->
<svg version="1.1" id="Capa_1" xmlns="http://www.w3.org/2000/svg" xmlns:xlink="http://www.w3.org/1999/xlink" x="0px" y="0px"
	 viewBox="-49 124.3 442.2 35.6" style="enable-background:new -49 124.3 442.2 35.6;" xml:space="preserve">
<path d="M195.1,150.8l182.9,3.4c6.5,0,11.8-5.3,11.8-11.8c0-6.5-5.3-11.8-11.8-11.8L195.1,134c-2.9,0-6.5,0.3-7.6,2.8
	c-1.2,2.5-1.4,8.8,0,11.2C188.8,150.4,192.2,150.8,195.1,150.8z"/>
<path d="M156.3,148c1.4-2.5,1.2-8.7,0-11.2c-1.1-2.4-4.7-2.8-7.6-2.8l-182.9-3.4c-6.5,0-11.8,5.3-11.8,11.8
	c0,6.5,5.3,11.8,11.8,11.8l182.9-3.4C151.6,150.8,155,150.4,156.3,148z"/>
<g>
	<circle cx="172.1" cy="142.1" r="7.2"/>
</g>
</svg>
