<?xml version="1.0" encoding="iso-8859-1"?>
<!-- Generator: Adobe Illustrator 16.0.0, SVG Export Plug-In . SVG Version: 6.00 Build 0)  -->
<!DOCTYPE svg PUBLIC "-//W3C//DTD SVG 1.1//EN" "http://www.w3.org/Graphics/SVG/1.1/DTD/svg11.dtd">
<svg version="1.1" id="Capa_1" xmlns="http://www.w3.org/2000/svg" xmlns:xlink="http://www.w3.org/1999/xlink" x="0px" y="0px"
	 width="412.642px" height="412.642px" viewBox="0 0 412.642 412.642" style="enable-background:new 0 0 412.642 412.642;"
	 xml:space="preserve">
<g>
	<g>
		<path d="M192.028,105.067l91.942,3.358c6.492,0,11.753-5.261,11.753-11.754c0-6.491-5.261-11.755-11.753-11.755l-91.942,3.358
			c-2.889,0-6.454,0.35-7.582,2.781c-1.183,2.548-1.352,8.771,0,11.233C185.736,104.639,189.139,105.067,192.028,105.067z"/>
		<path d="M53.717,108.425l91.942-3.358c2.891,0,6.293-0.427,7.584-2.778c1.352-2.461,1.183-8.686,0-11.233
			c-1.129-2.433-4.693-2.781-7.584-2.781l-91.942-3.358c-6.491,0-11.753,5.264-11.753,11.755
			C41.964,103.164,47.225,108.425,53.717,108.425z"/>
		<path d="M380.153,139.437c-17.944,0-32.486,14.537-32.486,32.482c0,17.947,14.542,32.483,32.486,32.483
			c17.95,0,32.488-14.536,32.488-32.483C412.642,153.972,398.104,139.437,380.153,139.437z M380.153,186.04
			c-7.801,0-14.121-6.321-14.121-14.122c0-7.804,6.32-14.122,14.121-14.122s14.126,6.318,14.126,14.122
			C394.279,179.719,387.954,186.04,380.153,186.04z"/>
		<path d="M347.828,151.612l-92.446,5.559c-14.985-19.219-38.456-21.203-64.732-21.203h-1.337c0.541-1.126,0.853-2.383,0.853-3.715
			c0-4.749-3.853-8.604-8.604-8.604h-4.944V87.861c0-4.07-3.296-7.368-7.367-7.368c-4.071,0-7.368,3.297-7.368,7.368v35.788h-5.854
			c-4.751,0-8.602,3.854-8.602,8.604c0,1.333,0.313,2.589,0.853,3.715h-19.322c-44.976,0-85.99,25.858-100.48,68.433
			c-15.511,45.575-4.906,88.404,40.07,88.404h122.104c38.388,0,53.27-33.227,79.473-58.639
			c11.358-11.017,53.271-39.727,77.124-42.956c-3.201-5.714-5.031-12.291-5.031-19.293
			C342.214,164.499,344.269,157.552,347.828,151.612z M125.905,242.44H78.302c-23.692,0-35.95-20.788-25.269-45.199
			c9.499-21.701,35.172-40.074,58.862-40.074h14.009c23.69,0,43.074,19.188,43.074,42.638
			C168.979,223.251,149.595,242.44,125.905,242.44z"/>
		<path d="M253.002,306.962c-34.332,0-98.982,0-133.313,0c-20.97,0-41.938,0-62.906,0c-7.302,0-14.637,0.166-21.932-0.17
			c-3.105-0.141-8.454-0.516-9.805-2.746c-1.405-2.324-1.121-10.902-1.121-13.895c0-16.243-23.914-15.947-23.914,0.296
			c0,13.196-0.815,27.526,11.972,35.481c10.425,6.481,23.136,6.218,34.981,6.218c20.618,0,41.241,0,61.859,0
			c37.951,0,106.224,0,144.178,0C269.242,332.147,269.242,306.962,253.002,306.962z"/>
	</g>
</g>
<g>
</g>
<g>
</g>
<g>
</g>
<g>
</g>
<g>
</g>
<g>
</g>
<g>
</g>
<g>
</g>
<g>
</g>
<g>
</g>
<g>
</g>
<g>
</g>
<g>
</g>
<g>
</g>
<g>
</g>
</svg>
