<!DOCTYPE svg PUBLIC "-//W3C//DTD SVG 20010904//EN" "http://www.w3.org/TR/2001/REC-SVG-20010904/DTD/svg10.dtd">
<svg version="1.0" xmlns="http://www.w3.org/2000/svg" width="200px" height="250px" viewBox="0 0 2000 2500" preserveAspectRatio="xMidYMid meet">
<g id="layer1" fill="#000102" stroke="none">
 <path d="M552 2387 c4 -17 165 -167 235 -218 150 -111 291 -284 343 -422 15 -39 17 -59 10 -100 -18 -109 -38 -144 -144 -257 -130 -138 -271 -302 -275 -318 -2 -9 -24 -46 -49 -81 -26 -37 -47 -77 -48 -95 -2 -17 -8 -53 -14 -81 -14 -63 -3 -204 16 -212 9 -3 14 -20 14 -44 0 -28 5 -41 20 -49 11 -6 20 -20 20 -31 0 -11 7 -22 15 -25 8 -4 15 -12 15 -18 0 -7 15 -27 33 -44 17 -17 50 -52 71 -77 21 -25 42 -45 47 -45 4 0 23 -14 41 -31 18 -17 42 -35 53 -40 11 -5 43 -23 70 -39 90 -53 177 -27 310 90 100 88 131 144 123 216 -2 23 -8 30 -31 32 -16 2 -34 -2 -42 -8 -17 -14 -60 -2 -149 41 -32 16 -64 29 -71 29 -7 0 -15 9 -18 20 -3 12 -14 20 -26 20 -12 0 -21 5 -21 11 0 17 -66 79 -85 79 -8 0 -15 9 -15 20 0 10 -6 23 -13 27 -8 4 -22 20 -32 35 -9 16 -23 28 -29 28 -12 0 -31 74 -42 167 -10 90 30 164 183 339 43 49 89 105 103 124 13 19 52 69 86 111 56 68 64 82 73 140 18 117 20 139 10 144 -5 4 -9 22 -9 41 0 30 -13 67 -30 84 -3 3 -23 28 -45 55 -60 76 -165 174 -210 195 -22 11 -47 24 -55 30 -8 5 -37 20 -65 33 -27 13 -66 33 -85 43 -40 23 -128 55 -212 78 -68 19 -80 20 -76 3z"/>
 </g>

</svg>