<?xml version="1.0" encoding="utf-8"?>
<!-- Generator: Adobe Illustrator 19.0.0, SVG Export Plug-In . SVG Version: 6.00 Build 0)  -->
<svg version="1.1" id="Layer_1" xmlns="http://www.w3.org/2000/svg" xmlns:xlink="http://www.w3.org/1999/xlink" x="0px" y="0px"
	 viewBox="50 19.4 266 575.6" style="enable-background:new 50 19.4 266 575.6;" xml:space="preserve">
<style type="text/css">
	.st0{fill:url(#SVGID_1_);}
</style>
<g id="layer1">
	
		<linearGradient id="SVGID_1_" gradientUnits="userSpaceOnUse" x1="80.4458" y1="309.5766" x2="285.8935" y2="309.5766" gradientTransform="matrix(1 0 0 -1 0 616.8)">
		<stop  offset="0" style="stop-color:#2193B0"/>
		<stop  offset="9.644485e-002" style="stop-color:#379DB9"/>
		<stop  offset="0.312" style="stop-color:#54B0CB"/>
		<stop  offset="0.5325" style="stop-color:#66C0DA"/>
		<stop  offset="0.7589" style="stop-color:#70CAE3"/>
		<stop  offset="1" style="stop-color:#73CFE7"/>
	</linearGradient>
	<path class="st0" d="M80.6,560.9c0.9-3.8,37.4-37.8,53.2-49.4c34-25.1,65.9-64.3,77.7-95.5c3.4-8.8,3.8-13.4,2.3-22.6
		c-4.1-24.7-8.6-32.6-32.6-58.2c-29.4-31.2-61.4-68.4-62.3-72c-0.5-2-5.4-10.4-11.1-18.3c-5.9-8.4-10.6-17.4-10.9-21.5
		c-0.5-3.8-1.8-12-3.2-18.3c-3.2-14.3-0.7-46.2,3.6-48c2-0.7,3.2-4.5,3.2-10c0-6.3,1.1-9.3,4.5-11.1c2.5-1.4,4.5-4.5,4.5-7
		c0-2.5,1.6-5,3.4-5.7c1.8-0.9,3.4-2.7,3.4-4.1c0-1.6,3.4-6.1,7.5-10c3.8-3.8,11.3-11.8,16.1-17.4c4.8-5.7,9.5-10.2,10.6-10.2
		c0.9,0,5.2-3.2,9.3-7c4.1-3.8,9.5-7.9,12-9.1c2.5-1.1,9.7-5.2,15.8-8.8c20.4-12,40.1-6.1,70.2,20.4c22.6,19.9,29.7,32.6,27.8,48.9
		c-0.5,5.2-1.8,6.8-7,7.2c-3.6,0.5-7.7-0.5-9.5-1.8c-3.8-3.2-13.6-0.5-33.7,9.3c-7.2,3.6-14.5,6.6-16.1,6.6s-3.4,2-4.1,4.5
		c-0.7,2.7-3.2,4.5-5.9,4.5c-2.7,0-4.8,1.1-4.8,2.5c0,3.8-14.9,17.9-19.2,17.9c-1.8,0-3.4,2-3.4,4.5c0,2.3-1.4,5.2-2.9,6.1
		c-1.8,0.9-5,4.5-7.2,7.9c-2,3.6-5.2,6.3-6.6,6.3c-2.7,0-7,16.8-9.5,37.8c-2.3,20.4,6.8,37.1,41.4,76.8
		c9.7,11.1,20.2,23.8,23.3,28.1c2.9,4.3,11.8,15.6,19.5,25.1c12.7,15.4,14.5,18.6,16.5,31.7c4.1,26.5,4.5,31.5,2.3,32.6
		c-1.1,0.9-2,5-2,9.3c0,6.8-2.9,15.2-6.8,19c-0.7,0.7-5.2,6.3-10.2,12.5c-13.6,17.2-37.4,39.4-47.5,44.2c-5,2.5-10.6,5.4-12.5,6.8
		c-1.8,1.1-8.4,4.5-14.7,7.5c-6.1,2.9-14.9,7.5-19.2,9.7c-9.1,5.2-29,12.5-48,17.7C82.4,564.6,79.7,564.8,80.6,560.9z"/>
</g>
</svg>
