<?xml version="1.0" encoding="utf-8"?>
<!-- Generator: Adobe Illustrator 19.0.0, SVG Export Plug-In . SVG Version: 6.00 Build 0)  -->
<svg version="1.1" id="Layer_1" xmlns="http://www.w3.org/2000/svg" xmlns:xlink="http://www.w3.org/1999/xlink" x="0px" y="0px"
	 viewBox="-155 132 200 250" style="enable-background:new -155 132 200 250;" xml:space="preserve">
<style type="text/css">
	.st0{fill:#2193B0;}
</style>
<g id="layer1">
	<path class="st0" d="M-99.8,370.7c0.4-1.7,16.5-16.7,23.5-21.8c15-11.1,29.1-28.4,34.3-42.2c1.5-3.9,1.7-5.9,1-10
		c-1.8-10.9-3.8-14.4-14.4-25.7c-13-13.8-27.1-30.2-27.5-31.8c-0.2-0.9-2.4-4.6-4.9-8.1c-2.6-3.7-4.7-7.7-4.8-9.5
		c-0.2-1.7-0.8-5.3-1.4-8.1c-1.4-6.3-0.3-20.4,1.6-21.2c0.9-0.3,1.4-2,1.4-4.4c0-2.8,0.5-4.1,2-4.9c1.1-0.6,2-2,2-3.1
		c0-1.1,0.7-2.2,1.5-2.5c0.8-0.4,1.5-1.2,1.5-1.8c0-0.7,1.5-2.7,3.3-4.4c1.7-1.7,5-5.2,7.1-7.7s4.2-4.5,4.7-4.5
		c0.4,0,2.3-1.4,4.1-3.1c1.8-1.7,4.2-3.5,5.3-4c1.1-0.5,4.3-2.3,7-3.9c9-5.3,17.7-2.7,31,9c10,8.8,13.1,14.4,12.3,21.6
		c-0.2,2.3-0.8,3-3.1,3.2c-1.6,0.2-3.4-0.2-4.2-0.8c-1.7-1.4-6-0.2-14.9,4.1c-3.2,1.6-6.4,2.9-7.1,2.9c-0.7,0-1.5,0.9-1.8,2
		c-0.3,1.2-1.4,2-2.6,2s-2.1,0.5-2.1,1.1c0,1.7-6.6,7.9-8.5,7.9c-0.8,0-1.5,0.9-1.5,2c0,1-0.6,2.3-1.3,2.7c-0.8,0.4-2.2,2-3.2,3.5
		c-0.9,1.6-2.3,2.8-2.9,2.8c-1.2,0-3.1,7.4-4.2,16.7c-1,9,3,16.4,18.3,33.9c4.3,4.9,8.9,10.5,10.3,12.4c1.3,1.9,5.2,6.9,8.6,11.1
		c5.6,6.8,6.4,8.2,7.3,14c1.8,11.7,2,13.9,1,14.4c-0.5,0.4-0.9,2.2-0.9,4.1c0,3-1.3,6.7-3,8.4c-0.3,0.3-2.3,2.8-4.5,5.5
		c-6,7.6-16.5,17.4-21,19.5c-2.2,1.1-4.7,2.4-5.5,3c-0.8,0.5-3.7,2-6.5,3.3c-2.7,1.3-6.6,3.3-8.5,4.3c-4,2.3-12.8,5.5-21.2,7.8
		C-99,372.3-100.2,372.4-99.8,370.7z"/>
</g>
</svg>
