<?xml version="1.0" encoding="iso-8859-1"?>
<!-- Generator: Adobe Illustrator 19.0.0, SVG Export Plug-In . SVG Version: 6.00 Build 0)  -->
<svg version="1.1" id="Layer_1" xmlns="http://www.w3.org/2000/svg" xmlns:xlink="http://www.w3.org/1999/xlink" x="0px" y="0px"
	 viewBox="0 0 467.16 467.16" style="enable-background:new 0 0 467.16 467.16;" xml:space="preserve">
<g>
	<g>
		<g>
			<path d="M391.083,210.102c-10.262,0-20.05,2.054-28.991,5.754l-4.204-7.886c10.289-4.373,21.533-6.766,33.195-6.766
				c14.523,0,28.863,3.744,41.472,10.826c3.608,2.028,8.183,0.746,10.212-2.866c2.028-3.611,0.745-8.184-2.866-10.212
				c-14.846-8.339-31.727-12.748-48.817-12.748c-14.184,0-27.84,3.01-40.273,8.49l-7.419-13.917c0.697,0.047,1.398,0.08,2.107,0.08
				h17.363c4.143,0,7.5-3.358,7.5-7.5v-48.49c0-4.142-3.357-7.5-7.5-7.5h-17.363c-11.763,0-22.005,6.624-27.203,16.335
				l-13.238-24.832c-1.303-2.445-3.848-3.972-6.618-3.972h-35.33c-4.143,0-7.5,3.358-7.5,7.5c0,4.142,3.357,7.5,7.5,7.5h30.828
				l12.748,23.913c-1.641-1.205-3.383-2.306-5.232-3.278c-11.296-5.936-24.958-6.282-36.543-0.927l-23.357,10.8
				c-8.455,3.909-15.074,10.358-19.271,18.091c-6.716-7.44-16.062-12.511-26.711-13.715L81.73,141.913
				c-5.808-0.657-11.636,1.2-15.994,5.092c-4.357,3.893-6.857,9.477-6.857,15.32v32.943c-1.436,0.62-2.85,1.281-4.235,1.995
				c-25.867,13.334-44.631,37.128-51.48,65.28c-0.979,4.025,1.49,8.081,5.515,9.061c0.596,0.145,1.192,0.214,1.779,0.214
				c3.379,0,6.447-2.3,7.282-5.729c5.821-23.925,21.777-44.152,43.778-55.493c7.854-4.049,16.868-6.189,26.068-6.189h10.355h120.262
				v21.75H146.89c-12.899-10.042-29.069-16.052-46.575-16.052c-39.079,0-71.561,29.868-75.634,67.969H7.5
				c-4.142,0-7.5,3.358-7.5,7.5v24.938c0,4.142,3.358,7.5,7.5,7.5h23.716c12.314,26.667,39.442,44.25,69.1,44.25
				c29.658,0,56.786-17.583,69.1-44.25H221.1c16.36,0,29.842-12.538,31.354-28.509c13.915-5.003,25.737-15.026,32.921-28.55
				l35.532-69.341c2.005-5.34,2.823-10.867,2.584-16.278l14.085,26.421c-18.799,11.922-33.568,30.048-41.125,52.147
				c-1.34,3.919,0.751,8.183,4.67,9.523c0.804,0.275,1.622,0.405,2.428,0.405c3.118,0,6.03-1.96,7.096-5.075
				c6.297-18.414,18.478-33.591,34.006-43.729l4.212,7.902c-20.399,13.661-33.859,36.912-33.859,63.252
				c0,41.95,34.129,76.078,76.078,76.078c41.949,0,76.078-34.128,76.078-76.078S433.032,210.102,391.083,210.102z M97.942,189.407
				v0.001H87.586H73.88v-27.083c0-2.159,1.159-3.516,1.85-4.134c0.691-0.617,2.174-1.616,4.315-1.374l113.841,12.869
				c11.285,1.276,20.311,9.268,23.278,19.721H97.942z M192.058,241.158l19.21,36.917H175.95
				c-1.466-13.71-6.618-26.346-14.425-36.917H192.058z M100.316,225.106c30.824,0,56.523,23.15,60.514,52.969H39.802
				C43.793,248.257,69.491,225.106,100.316,225.106z M100.316,347.263c-21.4,0-41.16-11.401-52.12-29.25h9.511
				c10.045,13.46,25.669,21.391,42.609,21.391c16.939,0,32.564-7.931,42.609-21.391h9.511
				C141.477,335.862,121.716,347.263,100.316,347.263z M79.176,318.013h42.28c-6.162,4.108-13.462,6.391-21.14,6.391
				C92.638,324.403,85.338,322.121,79.176,318.013z M221.1,303.013H15v-9.938h221.239
				C233.697,298.918,227.868,303.013,221.1,303.013z M272.129,253.917c-7.917,14.901-23.317,24.159-40.191,24.159h-3.76
				l-19.21-36.917h16.737c4.142,0,7.5-3.358,7.5-7.5v-29.25h65.227L272.129,253.917z M306.864,186.339l-1.152,3.069h-73.178
				c-0.101-0.567-0.216-1.129-0.339-1.688c0.309-10.016,6.196-19.326,15.653-23.699l23.357-10.8
				c7.379-3.411,16.077-3.19,23.271,0.59C306.191,159.966,311.517,173.95,306.864,186.339z M329.664,150.023v-1.824
				c0-8.73,7.104-15.833,15.834-15.833h9.863v33.49h-9.863C336.768,165.856,329.664,158.753,329.664,150.023z M366.842,256.654
				l8.286,15.542c1.35,2.531,3.943,3.973,6.625,3.973c1.19,0,2.397-0.284,3.521-0.883c3.655-1.948,5.038-6.491,3.09-10.146
				l-8.292-15.555c3.489-1.052,7.183-1.624,11.01-1.624c21.074,0,38.219,17.145,38.219,38.219c0,21.074-17.145,38.219-38.219,38.219
				c-21.074,0-38.219-17.145-38.219-38.219C352.863,274.3,358.313,263.669,366.842,256.654z M391.083,347.258
				c-33.679,0-61.078-27.399-61.078-61.078c0-20.614,10.275-38.862,25.962-49.928l3.726,6.989
				c-13.222,9.692-21.828,25.326-21.828,42.939c0,29.345,23.874,53.219,53.219,53.219c29.345,0,53.219-23.874,53.219-53.219
				c0-29.345-23.874-53.219-53.219-53.219c-6.378,0-12.496,1.13-18.168,3.197l-3.723-6.984c6.801-2.621,14.178-4.073,21.891-4.073
				c33.679,0,61.078,27.4,61.078,61.079S424.761,347.258,391.083,347.258z"/>
			<path d="M384.153,289.049c0.083,0.197,0.058,0.134,0.02,0.04c2.038,4.737,8.528,6.184,12.21,2.39c2.896-2.815,2.893-7.783,0-10.6
				c-2.452-2.526-6.564-2.878-9.47-0.94c-2.949,1.967-4.059,5.806-2.77,9.076C384.103,288.918,384.073,288.848,384.153,289.049z"/>
		</g>
	</g>
</g>
<g>
</g>
<g>
</g>
<g>
</g>
<g>
</g>
<g>
</g>
<g>
</g>
<g>
</g>
<g>
</g>
<g>
</g>
<g>
</g>
<g>
</g>
<g>
</g>
<g>
</g>
<g>
</g>
<g>
</g>
</svg>
